<svg width="36" height="34" viewBox="0 0 36 34" fill="none" xmlns="http://www.w3.org/2000/svg">
<path d="M18.959 8.30101L28.288 14.206L26.548 15.472L17.925 10.014L9.38596 15.47L7.65796 14.2L16.885 8.30601C17.1941 8.10716 17.5537 8.00101 17.9212 8.00013C18.2888 7.99924 18.6489 8.10365 18.959 8.30101Z" fill="white"/>
<path fill-rule="evenodd" clip-rule="evenodd" d="M0.834984 13.913C-0.323016 13.063 -0.267016 11.264 0.940984 10.493L16.885 0.305002C17.1941 0.106153 17.5537 6.67083e-06 17.9213 -0.000879416C18.2888 -0.0017655 18.6489 0.102646 18.959 0.300002L35.052 10.487C36.269 11.257 36.325 13.067 35.157 13.917L19.066 25.627C18.38 26.127 17.465 26.124 16.78 25.622L0.834984 13.912V13.913ZM2.01798 12.177L17.925 2.014L33.982 12.178L33.987 12.181L33.988 12.184C33.9957 12.1999 33.9998 12.2173 34 12.235C34.0008 12.2539 33.9974 12.2726 33.99 12.29C33.9899 12.2919 33.9892 12.2936 33.988 12.295L33.981 12.301L17.926 23.982L2.01898 12.301C2.01641 12.2993 2.01406 12.2973 2.01198 12.295L2.00898 12.289C2.00206 12.2719 1.99899 12.2534 1.99998 12.235C2.00018 12.2173 2.00428 12.1999 2.01198 12.184L2.01298 12.181L2.01798 12.177Z" fill="white"/>
<path d="M2.23698 17.664L3.96498 18.934L2.01798 20.177C2.0162 20.1782 2.01453 20.1795 2.01298 20.181L2.01198 20.184C2.00442 20.1996 2.00032 20.2167 1.99998 20.234C1.99885 20.2543 2.00262 20.2745 2.01098 20.293C2.01128 20.2937 2.01161 20.2943 2.01198 20.295L2.01898 20.301L17.926 31.982L33.981 20.301L33.988 20.295L33.989 20.293L33.991 20.29C33.998 20.2726 34.0011 20.2538 34 20.235C33.9998 20.2173 33.9957 20.1999 33.988 20.184L33.987 20.181L33.982 20.178L32.002 18.924L33.742 17.659L35.052 18.488C36.269 19.258 36.325 21.068 35.157 21.918L19.066 33.627C18.38 34.127 17.465 34.124 16.78 33.622L0.834984 21.912C-0.323016 21.062 -0.267016 19.264 0.940984 18.492L2.23698 17.664Z" fill="white"/>
</svg>
