<svg width="48" height="48" viewBox="0 0 48 48" fill="none" xmlns="http://www.w3.org/2000/svg">
<path d="M0 24C0 10.7452 10.7452 0 24 0C37.2548 0 48 10.7452 48 24C48 37.2548 37.2548 48 24 48C10.7452 48 0 37.2548 0 24Z" fill="#343538"/>
<path d="M29.4167 17.9917C27.25 21.7834 23.075 23.9584 18.725 23.5667L16.0833 23.325" stroke="white" stroke-miterlimit="10" stroke-linecap="round" stroke-linejoin="round"/>
<path d="M18.5833 30.1417C20.75 26.3501 24.925 24.1751 29.275 24.5667L31.9167 24.8084" stroke="white" stroke-miterlimit="10" stroke-linecap="round" stroke-linejoin="round"/>
<path d="M24 32.3334C28.6024 32.3334 32.3333 28.6025 32.3333 24.0001C32.3333 19.3977 28.6024 15.6667 24 15.6667C19.3976 15.6667 15.6667 19.3977 15.6667 24.0001C15.6667 28.6025 19.3976 32.3334 24 32.3334Z" stroke="white" stroke-miterlimit="10" stroke-linecap="round" stroke-linejoin="round"/>
<path d="M20.3583 16.5L23.0083 19.7917C24.7833 21.9917 26.0417 24.55 26.7083 27.2917L27.7167 31.45" stroke="white" stroke-miterlimit="10" stroke-linecap="round" stroke-linejoin="round"/>
</svg>
