<svg width="624" height="728" viewBox="0 0 624 728" fill="none" xmlns="http://www.w3.org/2000/svg">
<circle cx="180" cy="100" r="100" fill="#FFAD3B" fill-opacity="0.1"/>
<path fill-rule="evenodd" clip-rule="evenodd" d="M200 85.3333C198.939 85.3333 197.922 85.7548 197.172 86.5049C196.421 87.2551 196 88.2725 196 89.3333V92H204V89.3333C204 88.2725 203.579 87.2551 202.828 86.5049C202.078 85.7548 201.061 85.3333 200 85.3333ZM204 94.6667H196V116.667L200 122.667L204 116.667V94.6667ZM156 80V120C156 121.061 156.421 122.078 157.172 122.828C157.922 123.579 158.939 124 160 124H189.333C190.394 124 191.412 123.579 192.162 122.828C192.912 122.078 193.333 121.061 193.333 120V80C193.333 78.9391 192.912 77.9217 192.162 77.1716C191.412 76.4214 190.394 76 189.333 76H160C158.939 76 157.922 76.4214 157.172 77.1716C156.421 77.9217 156 78.9391 156 80ZM174.667 88C174.667 87.6464 174.807 87.3072 175.057 87.0572C175.307 86.8071 175.646 86.6667 176 86.6667H186.667C187.02 86.6667 187.359 86.8071 187.609 87.0572C187.86 87.3072 188 87.6464 188 88C188 88.3536 187.86 88.6928 187.609 88.9428C187.359 89.1929 187.02 89.3333 186.667 89.3333H176C175.646 89.3333 175.307 89.1929 175.057 88.9428C174.807 88.6928 174.667 88.3536 174.667 88ZM176 92C175.646 92 175.307 92.1405 175.057 92.3905C174.807 92.6406 174.667 92.9797 174.667 93.3333C174.667 93.687 174.807 94.0261 175.057 94.2761C175.307 94.5262 175.646 94.6667 176 94.6667H186.667C187.02 94.6667 187.359 94.5262 187.609 94.2761C187.86 94.0261 188 93.687 188 93.3333C188 92.9797 187.86 92.6406 187.609 92.3905C187.359 92.1405 187.02 92 186.667 92H176ZM174.667 105.333C174.667 104.98 174.807 104.641 175.057 104.391C175.307 104.14 175.646 104 176 104H186.667C187.02 104 187.359 104.14 187.609 104.391C187.86 104.641 188 104.98 188 105.333C188 105.687 187.86 106.026 187.609 106.276C187.359 106.526 187.02 106.667 186.667 106.667H176C175.646 106.667 175.307 106.526 175.057 106.276C174.807 106.026 174.667 105.687 174.667 105.333ZM176 109.333C175.646 109.333 175.307 109.474 175.057 109.724C174.807 109.974 174.667 110.313 174.667 110.667C174.667 111.02 174.807 111.359 175.057 111.609C175.307 111.86 175.646 112 176 112H186.667C187.02 112 187.359 111.86 187.609 111.609C187.86 111.359 188 111.02 188 110.667C188 110.313 187.86 109.974 187.609 109.724C187.359 109.474 187.02 109.333 186.667 109.333H176ZM164 105.333V109.333H168V105.333H164ZM162.667 102.667H169.333C169.687 102.667 170.026 102.807 170.276 103.057C170.526 103.307 170.667 103.646 170.667 104V110.667C170.667 111.02 170.526 111.359 170.276 111.609C170.026 111.86 169.687 112 169.333 112H162.667C162.313 112 161.974 111.86 161.724 111.609C161.474 111.359 161.333 111.02 161.333 110.667V104C161.333 103.646 161.474 103.307 161.724 103.057C161.974 102.807 162.313 102.667 162.667 102.667V102.667ZM171.609 88.9427C171.852 88.6912 171.987 88.3544 171.984 88.0048C171.981 87.6552 171.84 87.3208 171.593 87.0736C171.346 86.8264 171.011 86.6861 170.662 86.6831C170.312 86.6801 169.975 86.8145 169.724 87.0573L165.333 91.448L163.609 89.724C163.358 89.4811 163.021 89.3467 162.671 89.3498C162.322 89.3528 161.987 89.493 161.74 89.7402C161.493 89.9875 161.353 90.3219 161.35 90.6715C161.347 91.0211 161.481 91.3579 161.724 91.6093L165.333 95.2187L171.609 88.9427Z" fill="#FFAD3B"/>
<path d="M1.152 84.544H3.312V93.952H8.16V96H1.152V84.544ZM10.6109 87.024C10.4295 87.024 10.2535 86.992 10.0829 86.928C9.92288 86.8533 9.77888 86.7573 9.65088 86.64C9.53354 86.512 9.43754 86.368 9.36288 86.208C9.29888 86.048 9.26688 85.872 9.26688 85.68C9.26688 85.488 9.29888 85.312 9.36288 85.152C9.43754 84.992 9.53354 84.8533 9.65088 84.736C9.77888 84.608 9.92288 84.512 10.0829 84.448C10.2535 84.3733 10.4295 84.336 10.6109 84.336C10.9842 84.336 11.3042 84.4693 11.5709 84.736C11.8375 84.992 11.9709 85.3067 11.9709 85.68C11.9709 86.0533 11.8375 86.3733 11.5709 86.64C11.3042 86.896 10.9842 87.024 10.6109 87.024ZM9.57088 96V88.16H11.6669V96H9.57088ZM12.7515 88.16H15.1355L17.0875 93.152H17.1995L19.1675 88.16H21.5355L18.1595 96H16.0955L12.7515 88.16ZM29.6794 94.112C29.3167 94.752 28.826 95.2693 28.2074 95.664C27.5994 96.0587 26.8527 96.256 25.9674 96.256C25.37 96.256 24.8154 96.1547 24.3034 95.952C23.802 95.7387 23.3647 95.4453 22.9914 95.072C22.618 94.6987 22.3247 94.2613 22.1114 93.76C21.9087 93.248 21.8074 92.688 21.8074 92.08C21.8074 91.5147 21.9087 90.9813 22.1114 90.48C22.314 89.968 22.5967 89.5253 22.9594 89.152C23.322 88.768 23.7487 88.464 24.2394 88.24C24.7407 88.016 25.29 87.904 25.8874 87.904C26.5167 87.904 27.0767 88.0107 27.5674 88.224C28.058 88.4267 28.4687 88.7147 28.7994 89.088C29.13 89.4507 29.3807 89.8827 29.5514 90.384C29.722 90.8853 29.8074 91.4293 29.8074 92.016C29.8074 92.0907 29.8074 92.1547 29.8074 92.208C29.7967 92.272 29.7914 92.3307 29.7914 92.384C29.7807 92.4373 29.7754 92.496 29.7754 92.56H23.8714C23.914 92.88 23.9994 93.1573 24.1274 93.392C24.266 93.616 24.4314 93.808 24.6234 93.968C24.826 94.1173 25.0447 94.2293 25.2794 94.304C25.514 94.368 25.754 94.4 25.9994 94.4C26.4794 94.4 26.874 94.2933 27.1834 94.08C27.5034 93.856 27.754 93.5787 27.9354 93.248L29.6794 94.112ZM27.7754 91.072C27.7647 90.9333 27.7167 90.7787 27.6314 90.608C27.5567 90.4373 27.4394 90.2773 27.2794 90.128C27.13 89.9787 26.938 89.856 26.7034 89.76C26.4794 89.664 26.2074 89.616 25.8874 89.616C25.4394 89.616 25.0447 89.744 24.7034 90C24.362 90.256 24.122 90.6133 23.9834 91.072H27.7754ZM3.312 105.592V108.248H7.904V110.296H3.312V112.952H8.416V115H1.152V103.544H8.416V105.592H3.312ZM11.9418 111.016L9.25375 107.16H11.7338L13.1578 109.336H13.2698L14.6138 107.16H17.1737L14.4218 111.016L17.1737 115H14.7098L13.2378 112.76H13.1258L11.7018 115H9.22175L11.9418 111.016ZM22.8843 114.168H22.7563C22.5109 114.467 22.2123 114.723 21.8602 114.936C21.5189 115.149 21.0763 115.256 20.5323 115.256C20.1269 115.256 19.7429 115.187 19.3803 115.048C19.0283 114.92 18.7189 114.739 18.4523 114.504C18.1856 114.269 17.9776 113.987 17.8283 113.656C17.6789 113.325 17.6043 112.963 17.6043 112.568C17.6043 112.163 17.6843 111.8 17.8443 111.48C18.0043 111.149 18.2283 110.867 18.5163 110.632C18.8043 110.397 19.1403 110.221 19.5243 110.104C19.9189 109.976 20.3456 109.912 20.8043 109.912C21.3163 109.912 21.7376 109.955 22.0683 110.04C22.3989 110.115 22.6709 110.195 22.8843 110.28V110.04C22.8843 109.624 22.7189 109.283 22.3883 109.016C22.0576 108.739 21.6469 108.6 21.1562 108.6C20.4309 108.6 19.8176 108.904 19.3163 109.512L17.7963 108.472C18.6283 107.427 19.7643 106.904 21.2043 106.904C22.4203 106.904 23.3483 107.192 23.9883 107.768C24.6283 108.333 24.9483 109.176 24.9483 110.296V115H22.8843V114.168ZM22.8843 111.816C22.6389 111.699 22.3829 111.608 22.1163 111.544C21.8603 111.469 21.5776 111.432 21.2682 111.432C20.7669 111.432 20.3776 111.544 20.1003 111.768C19.8336 111.981 19.7003 112.248 19.7003 112.568C19.7003 112.888 19.8283 113.144 20.0843 113.336C20.3509 113.528 20.6549 113.624 20.9963 113.624C21.2736 113.624 21.5296 113.576 21.7643 113.48C21.9989 113.373 22.1963 113.24 22.3563 113.08C22.5269 112.909 22.6549 112.717 22.7403 112.504C22.8363 112.28 22.8843 112.051 22.8843 111.816ZM26.6148 107.16H28.5828V108.184H28.7108C28.9561 107.8 29.2868 107.491 29.7028 107.256C30.1294 107.021 30.5988 106.904 31.1108 106.904C31.7081 106.904 32.2094 107.043 32.6148 107.32C33.0201 107.597 33.3081 107.939 33.4788 108.344C33.7241 107.949 34.0708 107.613 34.5188 107.336C34.9668 107.048 35.5108 106.904 36.1508 106.904C36.6308 106.904 37.0468 106.984 37.3988 107.144C37.7508 107.293 38.0388 107.507 38.2628 107.784C38.4974 108.061 38.6734 108.397 38.7908 108.792C38.9081 109.176 38.9668 109.597 38.9668 110.056V115H36.8708V110.44C36.8708 109.373 36.4334 108.84 35.5588 108.84C35.2814 108.84 35.0361 108.904 34.8228 109.032C34.6094 109.149 34.4281 109.315 34.2788 109.528C34.1401 109.731 34.0281 109.976 33.9427 110.264C33.8681 110.552 33.8308 110.861 33.8308 111.192V115H31.7348V110.44C31.7348 109.373 31.2761 108.84 30.3588 108.84C30.0921 108.84 29.8574 108.904 29.6548 109.032C29.4521 109.149 29.2814 109.315 29.1428 109.528C29.0041 109.731 28.8974 109.976 28.8228 110.264C28.7481 110.552 28.7108 110.861 28.7108 111.192V115H26.6148V107.16ZM43.7188 115.256C43.2068 115.256 42.7481 115.192 42.3428 115.064C41.9481 114.936 41.6014 114.771 41.3028 114.568C41.0148 114.355 40.7694 114.115 40.5668 113.848C40.3641 113.571 40.2094 113.293 40.1028 113.016L41.9748 112.216C42.1561 112.621 42.3961 112.925 42.6948 113.128C43.0041 113.32 43.3454 113.416 43.7188 113.416C44.1028 113.416 44.4068 113.347 44.6308 113.208C44.8548 113.069 44.9668 112.904 44.9668 112.712C44.9668 112.499 44.8708 112.328 44.6788 112.2C44.4974 112.061 44.1774 111.939 43.7188 111.832L42.6148 111.592C42.3694 111.539 42.1134 111.453 41.8468 111.336C41.5908 111.219 41.3561 111.069 41.1428 110.888C40.9294 110.707 40.7534 110.488 40.6148 110.232C40.4761 109.976 40.4068 109.677 40.4068 109.336C40.4068 108.952 40.4868 108.611 40.6468 108.312C40.8174 108.013 41.0468 107.763 41.3348 107.56C41.6228 107.347 41.9588 107.187 42.3428 107.08C42.7374 106.963 43.1588 106.904 43.6068 106.904C44.3534 106.904 45.0201 107.053 45.6068 107.352C46.1934 107.64 46.6254 108.104 46.9028 108.744L45.0948 109.48C44.9454 109.171 44.7268 108.947 44.4388 108.808C44.1508 108.669 43.8628 108.6 43.5748 108.6C43.2761 108.6 43.0148 108.664 42.7908 108.792C42.5668 108.909 42.4548 109.064 42.4548 109.256C42.4548 109.437 42.5454 109.581 42.7268 109.688C42.9188 109.795 43.1748 109.891 43.4948 109.976L44.6948 110.264C45.4948 110.456 46.0868 110.765 46.4708 111.192C46.8654 111.608 47.0628 112.104 47.0628 112.68C47.0628 113.021 46.9828 113.347 46.8228 113.656C46.6628 113.965 46.4334 114.243 46.1348 114.488C45.8468 114.723 45.4948 114.909 45.0788 115.048C44.6734 115.187 44.2201 115.256 43.7188 115.256Z" fill="#FFAD3B"/>
<circle cx="524" cy="212" r="100" fill="#EB5757" fill-opacity="0.1"/>
<path d="M347.344 208V199.52L345.408 200.336L344.64 198.56L347.856 197.056H349.44V208H347.344ZM356.077 208.256C355.373 208.256 354.739 208.112 354.173 207.824C353.608 207.525 353.123 207.12 352.717 206.608C352.323 206.096 352.019 205.493 351.805 204.8C351.592 204.096 351.485 203.339 351.485 202.528C351.485 201.717 351.592 200.965 351.805 200.272C352.019 199.568 352.323 198.96 352.717 198.448C353.123 197.936 353.608 197.536 354.173 197.248C354.739 196.949 355.373 196.8 356.077 196.8C356.781 196.8 357.416 196.949 357.981 197.248C358.547 197.536 359.027 197.936 359.421 198.448C359.827 198.96 360.136 199.568 360.349 200.272C360.563 200.965 360.669 201.717 360.669 202.528C360.669 203.339 360.563 204.096 360.349 204.8C360.136 205.493 359.827 206.096 359.421 206.608C359.027 207.12 358.547 207.525 357.981 207.824C357.416 208.112 356.781 208.256 356.077 208.256ZM356.077 206.272C356.461 206.272 356.808 206.181 357.117 206C357.427 205.808 357.688 205.547 357.901 205.216C358.125 204.875 358.291 204.475 358.397 204.016C358.515 203.557 358.573 203.061 358.573 202.528C358.573 201.984 358.515 201.488 358.397 201.04C358.291 200.581 358.125 200.187 357.901 199.856C357.688 199.515 357.427 199.253 357.117 199.072C356.808 198.88 356.461 198.784 356.077 198.784C355.683 198.784 355.331 198.88 355.021 199.072C354.712 199.253 354.451 199.515 354.237 199.856C354.024 200.187 353.859 200.581 353.741 201.04C353.635 201.488 353.581 201.984 353.581 202.528C353.581 203.061 353.635 203.557 353.741 204.016C353.859 204.475 354.024 204.875 354.237 205.216C354.451 205.547 354.712 205.808 355.021 206C355.331 206.181 355.683 206.272 356.077 206.272ZM366.671 208.256C365.967 208.256 365.332 208.112 364.767 207.824C364.202 207.525 363.716 207.12 363.311 206.608C362.916 206.096 362.612 205.493 362.399 204.8C362.186 204.096 362.079 203.339 362.079 202.528C362.079 201.717 362.186 200.965 362.399 200.272C362.612 199.568 362.916 198.96 363.311 198.448C363.716 197.936 364.202 197.536 364.767 197.248C365.332 196.949 365.967 196.8 366.671 196.8C367.375 196.8 368.01 196.949 368.575 197.248C369.14 197.536 369.62 197.936 370.015 198.448C370.42 198.96 370.73 199.568 370.943 200.272C371.156 200.965 371.263 201.717 371.263 202.528C371.263 203.339 371.156 204.096 370.943 204.8C370.73 205.493 370.42 206.096 370.015 206.608C369.62 207.12 369.14 207.525 368.575 207.824C368.01 208.112 367.375 208.256 366.671 208.256ZM366.671 206.272C367.055 206.272 367.402 206.181 367.711 206C368.02 205.808 368.282 205.547 368.495 205.216C368.719 204.875 368.884 204.475 368.991 204.016C369.108 203.557 369.167 203.061 369.167 202.528C369.167 201.984 369.108 201.488 368.991 201.04C368.884 200.581 368.719 200.187 368.495 199.856C368.282 199.515 368.02 199.253 367.711 199.072C367.402 198.88 367.055 198.784 366.671 198.784C366.276 198.784 365.924 198.88 365.615 199.072C365.306 199.253 365.044 199.515 364.831 199.856C364.618 200.187 364.452 200.581 364.335 201.04C364.228 201.488 364.175 201.984 364.175 202.528C364.175 203.061 364.228 203.557 364.335 204.016C364.452 204.475 364.618 204.875 364.831 205.216C365.044 205.547 365.306 205.808 365.615 206C365.924 206.181 366.276 206.272 366.671 206.272ZM377.265 208.256C376.561 208.256 375.926 208.112 375.361 207.824C374.795 207.525 374.31 207.12 373.905 206.608C373.51 206.096 373.206 205.493 372.993 204.8C372.779 204.096 372.673 203.339 372.673 202.528C372.673 201.717 372.779 200.965 372.993 200.272C373.206 199.568 373.51 198.96 373.905 198.448C374.31 197.936 374.795 197.536 375.361 197.248C375.926 196.949 376.561 196.8 377.265 196.8C377.969 196.8 378.603 196.949 379.169 197.248C379.734 197.536 380.214 197.936 380.609 198.448C381.014 198.96 381.323 199.568 381.537 200.272C381.75 200.965 381.857 201.717 381.857 202.528C381.857 203.339 381.75 204.096 381.537 204.8C381.323 205.493 381.014 206.096 380.609 206.608C380.214 207.12 379.734 207.525 379.169 207.824C378.603 208.112 377.969 208.256 377.265 208.256ZM377.265 206.272C377.649 206.272 377.995 206.181 378.305 206C378.614 205.808 378.875 205.547 379.089 205.216C379.313 204.875 379.478 204.475 379.585 204.016C379.702 203.557 379.761 203.061 379.761 202.528C379.761 201.984 379.702 201.488 379.585 201.04C379.478 200.581 379.313 200.187 379.089 199.856C378.875 199.515 378.614 199.253 378.305 199.072C377.995 198.88 377.649 198.784 377.265 198.784C376.87 198.784 376.518 198.88 376.209 199.072C375.899 199.253 375.638 199.515 375.425 199.856C375.211 200.187 375.046 200.581 374.929 201.04C374.822 201.488 374.769 201.984 374.769 202.528C374.769 203.061 374.822 203.557 374.929 204.016C375.046 204.475 375.211 204.875 375.425 205.216C375.638 205.547 375.899 205.808 376.209 206C376.518 206.181 376.87 206.272 377.265 206.272ZM388.035 202.736H390.771V204.592H388.035V207.312H386.179V204.592H383.459V202.736H386.179V200.016H388.035V202.736ZM345.152 215.544H347.312V224.952H352.16V227H345.152V215.544ZM360.867 225.112C360.504 225.752 360.014 226.269 359.395 226.664C358.787 227.059 358.04 227.256 357.155 227.256C356.558 227.256 356.003 227.155 355.491 226.952C354.99 226.739 354.552 226.445 354.179 226.072C353.806 225.699 353.512 225.261 353.299 224.76C353.096 224.248 352.995 223.688 352.995 223.08C352.995 222.515 353.096 221.981 353.299 221.48C353.502 220.968 353.784 220.525 354.147 220.152C354.51 219.768 354.936 219.464 355.427 219.24C355.928 219.016 356.478 218.904 357.075 218.904C357.704 218.904 358.264 219.011 358.755 219.224C359.246 219.427 359.656 219.715 359.987 220.088C360.318 220.451 360.568 220.883 360.739 221.384C360.91 221.885 360.995 222.429 360.995 223.016C360.995 223.091 360.995 223.155 360.995 223.208C360.984 223.272 360.979 223.331 360.979 223.384C360.968 223.437 360.963 223.496 360.963 223.56H355.059C355.102 223.88 355.187 224.157 355.315 224.392C355.454 224.616 355.619 224.808 355.811 224.968C356.014 225.117 356.232 225.229 356.467 225.304C356.702 225.368 356.942 225.4 357.187 225.4C357.667 225.4 358.062 225.293 358.371 225.08C358.691 224.856 358.942 224.579 359.123 224.248L360.867 225.112ZM358.963 222.072C358.952 221.933 358.904 221.779 358.819 221.608C358.744 221.437 358.627 221.277 358.467 221.128C358.318 220.979 358.126 220.856 357.891 220.76C357.667 220.664 357.395 220.616 357.075 220.616C356.627 220.616 356.232 220.744 355.891 221C355.55 221.256 355.31 221.613 355.171 222.072H358.963ZM365.516 227.256C365.004 227.256 364.545 227.192 364.14 227.064C363.745 226.936 363.398 226.771 363.1 226.568C362.812 226.355 362.566 226.115 362.364 225.848C362.161 225.571 362.006 225.293 361.9 225.016L363.772 224.216C363.953 224.621 364.193 224.925 364.492 225.128C364.801 225.32 365.142 225.416 365.516 225.416C365.9 225.416 366.204 225.347 366.428 225.208C366.652 225.069 366.764 224.904 366.764 224.712C366.764 224.499 366.668 224.328 366.476 224.2C366.294 224.061 365.974 223.939 365.516 223.832L364.412 223.592C364.166 223.539 363.91 223.453 363.644 223.336C363.388 223.219 363.153 223.069 362.94 222.888C362.726 222.707 362.55 222.488 362.412 222.232C362.273 221.976 362.204 221.677 362.204 221.336C362.204 220.952 362.284 220.611 362.444 220.312C362.614 220.013 362.844 219.763 363.132 219.56C363.42 219.347 363.756 219.187 364.14 219.08C364.534 218.963 364.956 218.904 365.404 218.904C366.15 218.904 366.817 219.053 367.404 219.352C367.99 219.64 368.422 220.104 368.7 220.744L366.892 221.48C366.742 221.171 366.524 220.947 366.236 220.808C365.948 220.669 365.66 220.6 365.372 220.6C365.073 220.6 364.812 220.664 364.588 220.792C364.364 220.909 364.252 221.064 364.252 221.256C364.252 221.437 364.342 221.581 364.524 221.688C364.716 221.795 364.972 221.891 365.292 221.976L366.492 222.264C367.292 222.456 367.884 222.765 368.268 223.192C368.662 223.608 368.86 224.104 368.86 224.68C368.86 225.021 368.78 225.347 368.62 225.656C368.46 225.965 368.23 226.243 367.932 226.488C367.644 226.723 367.292 226.909 366.876 227.048C366.47 227.187 366.017 227.256 365.516 227.256ZM373.25 227.256C372.738 227.256 372.279 227.192 371.874 227.064C371.479 226.936 371.133 226.771 370.834 226.568C370.546 226.355 370.301 226.115 370.098 225.848C369.895 225.571 369.741 225.293 369.634 225.016L371.506 224.216C371.687 224.621 371.927 224.925 372.226 225.128C372.535 225.32 372.877 225.416 373.25 225.416C373.634 225.416 373.938 225.347 374.162 225.208C374.386 225.069 374.498 224.904 374.498 224.712C374.498 224.499 374.402 224.328 374.21 224.2C374.029 224.061 373.709 223.939 373.25 223.832L372.146 223.592C371.901 223.539 371.645 223.453 371.378 223.336C371.122 223.219 370.887 223.069 370.674 222.888C370.461 222.707 370.285 222.488 370.146 222.232C370.007 221.976 369.938 221.677 369.938 221.336C369.938 220.952 370.018 220.611 370.178 220.312C370.349 220.013 370.578 219.763 370.866 219.56C371.154 219.347 371.49 219.187 371.874 219.08C372.269 218.963 372.69 218.904 373.138 218.904C373.885 218.904 374.551 219.053 375.138 219.352C375.725 219.64 376.157 220.104 376.434 220.744L374.626 221.48C374.477 221.171 374.258 220.947 373.97 220.808C373.682 220.669 373.394 220.6 373.106 220.6C372.807 220.6 372.546 220.664 372.322 220.792C372.098 220.909 371.986 221.064 371.986 221.256C371.986 221.437 372.077 221.581 372.258 221.688C372.45 221.795 372.706 221.891 373.026 221.976L374.226 222.264C375.026 222.456 375.618 222.765 376.002 223.192C376.397 223.608 376.594 224.104 376.594 224.68C376.594 225.021 376.514 225.347 376.354 225.656C376.194 225.965 375.965 226.243 375.666 226.488C375.378 226.723 375.026 226.909 374.61 227.048C374.205 227.187 373.751 227.256 373.25 227.256ZM381.671 218.904C382.279 218.904 382.833 219.011 383.335 219.224C383.847 219.427 384.284 219.715 384.647 220.088C385.02 220.451 385.308 220.888 385.51 221.4C385.724 221.912 385.831 222.472 385.831 223.08C385.831 223.688 385.724 224.248 385.51 224.76C385.308 225.272 385.02 225.715 384.647 226.088C384.284 226.451 383.847 226.739 383.335 226.952C382.833 227.155 382.279 227.256 381.671 227.256C381.063 227.256 380.503 227.155 379.991 226.952C379.489 226.739 379.052 226.451 378.679 226.088C378.316 225.715 378.028 225.272 377.815 224.76C377.612 224.248 377.511 223.688 377.511 223.08C377.511 222.472 377.612 221.912 377.815 221.4C378.028 220.888 378.316 220.451 378.679 220.088C379.052 219.715 379.489 219.427 379.991 219.224C380.503 219.011 381.063 218.904 381.671 218.904ZM381.671 225.32C381.937 225.32 382.193 225.272 382.439 225.176C382.695 225.069 382.919 224.92 383.111 224.728C383.303 224.536 383.452 224.301 383.559 224.024C383.676 223.747 383.735 223.432 383.735 223.08C383.735 222.728 383.676 222.413 383.559 222.136C383.452 221.859 383.303 221.624 383.111 221.432C382.919 221.24 382.695 221.096 382.439 221C382.193 220.893 381.937 220.84 381.671 220.84C381.393 220.84 381.132 220.893 380.887 221C380.641 221.096 380.423 221.24 380.231 221.432C380.039 221.624 379.884 221.859 379.767 222.136C379.66 222.413 379.607 222.728 379.607 223.08C379.607 223.432 379.66 223.747 379.767 224.024C379.884 224.301 380.039 224.536 380.231 224.728C380.423 224.92 380.641 225.069 380.887 225.176C381.132 225.272 381.393 225.32 381.671 225.32ZM388.989 220.184H389.117C389.362 219.789 389.693 219.48 390.109 219.256C390.525 219.021 391 218.904 391.533 218.904C392.024 218.904 392.456 218.984 392.829 219.144C393.202 219.304 393.506 219.533 393.741 219.832C393.986 220.12 394.168 220.472 394.285 220.888C394.413 221.293 394.477 221.747 394.477 222.248V227H392.381V222.504C392.381 221.939 392.253 221.523 391.997 221.256C391.752 220.979 391.389 220.84 390.909 220.84C390.621 220.84 390.365 220.904 390.141 221.032C389.928 221.149 389.741 221.315 389.581 221.528C389.432 221.731 389.314 221.976 389.229 222.264C389.154 222.541 389.117 222.84 389.117 223.16V227H387.021V219.16H388.989V220.184ZM399.234 227.256C398.722 227.256 398.264 227.192 397.858 227.064C397.464 226.936 397.117 226.771 396.818 226.568C396.53 226.355 396.285 226.115 396.082 225.848C395.88 225.571 395.725 225.293 395.618 225.016L397.49 224.216C397.672 224.621 397.912 224.925 398.21 225.128C398.52 225.32 398.861 225.416 399.234 225.416C399.618 225.416 399.922 225.347 400.146 225.208C400.37 225.069 400.482 224.904 400.482 224.712C400.482 224.499 400.386 224.328 400.194 224.2C400.013 224.061 399.693 223.939 399.234 223.832L398.13 223.592C397.885 223.539 397.629 223.453 397.362 223.336C397.106 223.219 396.872 223.069 396.658 222.888C396.445 222.707 396.269 222.488 396.13 222.232C395.992 221.976 395.922 221.677 395.922 221.336C395.922 220.952 396.002 220.611 396.162 220.312C396.333 220.013 396.562 219.763 396.85 219.56C397.138 219.347 397.474 219.187 397.858 219.08C398.253 218.963 398.674 218.904 399.122 218.904C399.869 218.904 400.536 219.053 401.122 219.352C401.709 219.64 402.141 220.104 402.418 220.744L400.61 221.48C400.461 221.171 400.242 220.947 399.954 220.808C399.666 220.669 399.378 220.6 399.09 220.6C398.792 220.6 398.53 220.664 398.306 220.792C398.082 220.909 397.97 221.064 397.97 221.256C397.97 221.437 398.061 221.581 398.242 221.688C398.434 221.795 398.69 221.891 399.01 221.976L400.21 222.264C401.01 222.456 401.602 222.765 401.986 223.192C402.381 223.608 402.578 224.104 402.578 224.68C402.578 225.021 402.498 225.347 402.338 225.656C402.178 225.965 401.949 226.243 401.65 226.488C401.362 226.723 401.01 226.909 400.594 227.048C400.189 227.187 399.736 227.256 399.234 227.256Z" fill="#EB5757"/>
<circle cx="524" cy="476" r="100" fill="#08BD80" fill-opacity="0.1"/>
<path d="M347.344 472V463.52L345.408 464.336L344.64 462.56L347.856 461.056H349.44V472H347.344ZM356.077 472.256C355.373 472.256 354.739 472.112 354.173 471.824C353.608 471.525 353.123 471.12 352.717 470.608C352.323 470.096 352.019 469.493 351.805 468.8C351.592 468.096 351.485 467.339 351.485 466.528C351.485 465.717 351.592 464.965 351.805 464.272C352.019 463.568 352.323 462.96 352.717 462.448C353.123 461.936 353.608 461.536 354.173 461.248C354.739 460.949 355.373 460.8 356.077 460.8C356.781 460.8 357.416 460.949 357.981 461.248C358.547 461.536 359.027 461.936 359.421 462.448C359.827 462.96 360.136 463.568 360.349 464.272C360.563 464.965 360.669 465.717 360.669 466.528C360.669 467.339 360.563 468.096 360.349 468.8C360.136 469.493 359.827 470.096 359.421 470.608C359.027 471.12 358.547 471.525 357.981 471.824C357.416 472.112 356.781 472.256 356.077 472.256ZM356.077 470.272C356.461 470.272 356.808 470.181 357.117 470C357.427 469.808 357.688 469.547 357.901 469.216C358.125 468.875 358.291 468.475 358.397 468.016C358.515 467.557 358.573 467.061 358.573 466.528C358.573 465.984 358.515 465.488 358.397 465.04C358.291 464.581 358.125 464.187 357.901 463.856C357.688 463.515 357.427 463.253 357.117 463.072C356.808 462.88 356.461 462.784 356.077 462.784C355.683 462.784 355.331 462.88 355.021 463.072C354.712 463.253 354.451 463.515 354.237 463.856C354.024 464.187 353.859 464.581 353.741 465.04C353.635 465.488 353.581 465.984 353.581 466.528C353.581 467.061 353.635 467.557 353.741 468.016C353.859 468.475 354.024 468.875 354.237 469.216C354.451 469.547 354.712 469.808 355.021 470C355.331 470.181 355.683 470.272 356.077 470.272ZM366.671 472.256C365.967 472.256 365.332 472.112 364.767 471.824C364.202 471.525 363.716 471.12 363.311 470.608C362.916 470.096 362.612 469.493 362.399 468.8C362.186 468.096 362.079 467.339 362.079 466.528C362.079 465.717 362.186 464.965 362.399 464.272C362.612 463.568 362.916 462.96 363.311 462.448C363.716 461.936 364.202 461.536 364.767 461.248C365.332 460.949 365.967 460.8 366.671 460.8C367.375 460.8 368.01 460.949 368.575 461.248C369.14 461.536 369.62 461.936 370.015 462.448C370.42 462.96 370.73 463.568 370.943 464.272C371.156 464.965 371.263 465.717 371.263 466.528C371.263 467.339 371.156 468.096 370.943 468.8C370.73 469.493 370.42 470.096 370.015 470.608C369.62 471.12 369.14 471.525 368.575 471.824C368.01 472.112 367.375 472.256 366.671 472.256ZM366.671 470.272C367.055 470.272 367.402 470.181 367.711 470C368.02 469.808 368.282 469.547 368.495 469.216C368.719 468.875 368.884 468.475 368.991 468.016C369.108 467.557 369.167 467.061 369.167 466.528C369.167 465.984 369.108 465.488 368.991 465.04C368.884 464.581 368.719 464.187 368.495 463.856C368.282 463.515 368.02 463.253 367.711 463.072C367.402 462.88 367.055 462.784 366.671 462.784C366.276 462.784 365.924 462.88 365.615 463.072C365.306 463.253 365.044 463.515 364.831 463.856C364.618 464.187 364.452 464.581 364.335 465.04C364.228 465.488 364.175 465.984 364.175 466.528C364.175 467.061 364.228 467.557 364.335 468.016C364.452 468.475 364.618 468.875 364.831 469.216C365.044 469.547 365.306 469.808 365.615 470C365.924 470.181 366.276 470.272 366.671 470.272ZM377.265 472.256C376.561 472.256 375.926 472.112 375.361 471.824C374.795 471.525 374.31 471.12 373.905 470.608C373.51 470.096 373.206 469.493 372.993 468.8C372.779 468.096 372.673 467.339 372.673 466.528C372.673 465.717 372.779 464.965 372.993 464.272C373.206 463.568 373.51 462.96 373.905 462.448C374.31 461.936 374.795 461.536 375.361 461.248C375.926 460.949 376.561 460.8 377.265 460.8C377.969 460.8 378.603 460.949 379.169 461.248C379.734 461.536 380.214 461.936 380.609 462.448C381.014 462.96 381.323 463.568 381.537 464.272C381.75 464.965 381.857 465.717 381.857 466.528C381.857 467.339 381.75 468.096 381.537 468.8C381.323 469.493 381.014 470.096 380.609 470.608C380.214 471.12 379.734 471.525 379.169 471.824C378.603 472.112 377.969 472.256 377.265 472.256ZM377.265 470.272C377.649 470.272 377.995 470.181 378.305 470C378.614 469.808 378.875 469.547 379.089 469.216C379.313 468.875 379.478 468.475 379.585 468.016C379.702 467.557 379.761 467.061 379.761 466.528C379.761 465.984 379.702 465.488 379.585 465.04C379.478 464.581 379.313 464.187 379.089 463.856C378.875 463.515 378.614 463.253 378.305 463.072C377.995 462.88 377.649 462.784 377.265 462.784C376.87 462.784 376.518 462.88 376.209 463.072C375.899 463.253 375.638 463.515 375.425 463.856C375.211 464.187 375.046 464.581 374.929 465.04C374.822 465.488 374.769 465.984 374.769 466.528C374.769 467.061 374.822 467.557 374.929 468.016C375.046 468.475 375.211 468.875 375.425 469.216C375.638 469.547 375.899 469.808 376.209 470C376.518 470.181 376.87 470.272 377.265 470.272ZM388.035 466.736H390.771V468.592H388.035V471.312H386.179V468.592H383.459V466.736H386.179V464.016H388.035V466.736ZM345.152 479.544H347.312V488.952H352.16V491H345.152V479.544ZM360.867 489.112C360.504 489.752 360.014 490.269 359.395 490.664C358.787 491.059 358.04 491.256 357.155 491.256C356.558 491.256 356.003 491.155 355.491 490.952C354.99 490.739 354.552 490.445 354.179 490.072C353.806 489.699 353.512 489.261 353.299 488.76C353.096 488.248 352.995 487.688 352.995 487.08C352.995 486.515 353.096 485.981 353.299 485.48C353.502 484.968 353.784 484.525 354.147 484.152C354.51 483.768 354.936 483.464 355.427 483.24C355.928 483.016 356.478 482.904 357.075 482.904C357.704 482.904 358.264 483.011 358.755 483.224C359.246 483.427 359.656 483.715 359.987 484.088C360.318 484.451 360.568 484.883 360.739 485.384C360.91 485.885 360.995 486.429 360.995 487.016C360.995 487.091 360.995 487.155 360.995 487.208C360.984 487.272 360.979 487.331 360.979 487.384C360.968 487.437 360.963 487.496 360.963 487.56H355.059C355.102 487.88 355.187 488.157 355.315 488.392C355.454 488.616 355.619 488.808 355.811 488.968C356.014 489.117 356.232 489.229 356.467 489.304C356.702 489.368 356.942 489.4 357.187 489.4C357.667 489.4 358.062 489.293 358.371 489.08C358.691 488.856 358.942 488.579 359.123 488.248L360.867 489.112ZM358.963 486.072C358.952 485.933 358.904 485.779 358.819 485.608C358.744 485.437 358.627 485.277 358.467 485.128C358.318 484.979 358.126 484.856 357.891 484.76C357.667 484.664 357.395 484.616 357.075 484.616C356.627 484.616 356.232 484.744 355.891 485C355.55 485.256 355.31 485.613 355.171 486.072H358.963ZM365.516 491.256C365.004 491.256 364.545 491.192 364.14 491.064C363.745 490.936 363.398 490.771 363.1 490.568C362.812 490.355 362.566 490.115 362.364 489.848C362.161 489.571 362.006 489.293 361.9 489.016L363.772 488.216C363.953 488.621 364.193 488.925 364.492 489.128C364.801 489.32 365.142 489.416 365.516 489.416C365.9 489.416 366.204 489.347 366.428 489.208C366.652 489.069 366.764 488.904 366.764 488.712C366.764 488.499 366.668 488.328 366.476 488.2C366.294 488.061 365.974 487.939 365.516 487.832L364.412 487.592C364.166 487.539 363.91 487.453 363.644 487.336C363.388 487.219 363.153 487.069 362.94 486.888C362.726 486.707 362.55 486.488 362.412 486.232C362.273 485.976 362.204 485.677 362.204 485.336C362.204 484.952 362.284 484.611 362.444 484.312C362.614 484.013 362.844 483.763 363.132 483.56C363.42 483.347 363.756 483.187 364.14 483.08C364.534 482.963 364.956 482.904 365.404 482.904C366.15 482.904 366.817 483.053 367.404 483.352C367.99 483.64 368.422 484.104 368.7 484.744L366.892 485.48C366.742 485.171 366.524 484.947 366.236 484.808C365.948 484.669 365.66 484.6 365.372 484.6C365.073 484.6 364.812 484.664 364.588 484.792C364.364 484.909 364.252 485.064 364.252 485.256C364.252 485.437 364.342 485.581 364.524 485.688C364.716 485.795 364.972 485.891 365.292 485.976L366.492 486.264C367.292 486.456 367.884 486.765 368.268 487.192C368.662 487.608 368.86 488.104 368.86 488.68C368.86 489.021 368.78 489.347 368.62 489.656C368.46 489.965 368.23 490.243 367.932 490.488C367.644 490.723 367.292 490.909 366.876 491.048C366.47 491.187 366.017 491.256 365.516 491.256ZM373.25 491.256C372.738 491.256 372.279 491.192 371.874 491.064C371.479 490.936 371.133 490.771 370.834 490.568C370.546 490.355 370.301 490.115 370.098 489.848C369.895 489.571 369.741 489.293 369.634 489.016L371.506 488.216C371.687 488.621 371.927 488.925 372.226 489.128C372.535 489.32 372.877 489.416 373.25 489.416C373.634 489.416 373.938 489.347 374.162 489.208C374.386 489.069 374.498 488.904 374.498 488.712C374.498 488.499 374.402 488.328 374.21 488.2C374.029 488.061 373.709 487.939 373.25 487.832L372.146 487.592C371.901 487.539 371.645 487.453 371.378 487.336C371.122 487.219 370.887 487.069 370.674 486.888C370.461 486.707 370.285 486.488 370.146 486.232C370.007 485.976 369.938 485.677 369.938 485.336C369.938 484.952 370.018 484.611 370.178 484.312C370.349 484.013 370.578 483.763 370.866 483.56C371.154 483.347 371.49 483.187 371.874 483.08C372.269 482.963 372.69 482.904 373.138 482.904C373.885 482.904 374.551 483.053 375.138 483.352C375.725 483.64 376.157 484.104 376.434 484.744L374.626 485.48C374.477 485.171 374.258 484.947 373.97 484.808C373.682 484.669 373.394 484.6 373.106 484.6C372.807 484.6 372.546 484.664 372.322 484.792C372.098 484.909 371.986 485.064 371.986 485.256C371.986 485.437 372.077 485.581 372.258 485.688C372.45 485.795 372.706 485.891 373.026 485.976L374.226 486.264C375.026 486.456 375.618 486.765 376.002 487.192C376.397 487.608 376.594 488.104 376.594 488.68C376.594 489.021 376.514 489.347 376.354 489.656C376.194 489.965 375.965 490.243 375.666 490.488C375.378 490.723 375.026 490.909 374.61 491.048C374.205 491.187 373.751 491.256 373.25 491.256ZM381.671 482.904C382.279 482.904 382.833 483.011 383.335 483.224C383.847 483.427 384.284 483.715 384.647 484.088C385.02 484.451 385.308 484.888 385.51 485.4C385.724 485.912 385.831 486.472 385.831 487.08C385.831 487.688 385.724 488.248 385.51 488.76C385.308 489.272 385.02 489.715 384.647 490.088C384.284 490.451 383.847 490.739 383.335 490.952C382.833 491.155 382.279 491.256 381.671 491.256C381.063 491.256 380.503 491.155 379.991 490.952C379.489 490.739 379.052 490.451 378.679 490.088C378.316 489.715 378.028 489.272 377.815 488.76C377.612 488.248 377.511 487.688 377.511 487.08C377.511 486.472 377.612 485.912 377.815 485.4C378.028 484.888 378.316 484.451 378.679 484.088C379.052 483.715 379.489 483.427 379.991 483.224C380.503 483.011 381.063 482.904 381.671 482.904ZM381.671 489.32C381.937 489.32 382.193 489.272 382.439 489.176C382.695 489.069 382.919 488.92 383.111 488.728C383.303 488.536 383.452 488.301 383.559 488.024C383.676 487.747 383.735 487.432 383.735 487.08C383.735 486.728 383.676 486.413 383.559 486.136C383.452 485.859 383.303 485.624 383.111 485.432C382.919 485.24 382.695 485.096 382.439 485C382.193 484.893 381.937 484.84 381.671 484.84C381.393 484.84 381.132 484.893 380.887 485C380.641 485.096 380.423 485.24 380.231 485.432C380.039 485.624 379.884 485.859 379.767 486.136C379.66 486.413 379.607 486.728 379.607 487.08C379.607 487.432 379.66 487.747 379.767 488.024C379.884 488.301 380.039 488.536 380.231 488.728C380.423 488.92 380.641 489.069 380.887 489.176C381.132 489.272 381.393 489.32 381.671 489.32ZM388.989 484.184H389.117C389.362 483.789 389.693 483.48 390.109 483.256C390.525 483.021 391 482.904 391.533 482.904C392.024 482.904 392.456 482.984 392.829 483.144C393.202 483.304 393.506 483.533 393.741 483.832C393.986 484.12 394.168 484.472 394.285 484.888C394.413 485.293 394.477 485.747 394.477 486.248V491H392.381V486.504C392.381 485.939 392.253 485.523 391.997 485.256C391.752 484.979 391.389 484.84 390.909 484.84C390.621 484.84 390.365 484.904 390.141 485.032C389.928 485.149 389.741 485.315 389.581 485.528C389.432 485.731 389.314 485.976 389.229 486.264C389.154 486.541 389.117 486.84 389.117 487.16V491H387.021V483.16H388.989V484.184ZM399.234 491.256C398.722 491.256 398.264 491.192 397.858 491.064C397.464 490.936 397.117 490.771 396.818 490.568C396.53 490.355 396.285 490.115 396.082 489.848C395.88 489.571 395.725 489.293 395.618 489.016L397.49 488.216C397.672 488.621 397.912 488.925 398.21 489.128C398.52 489.32 398.861 489.416 399.234 489.416C399.618 489.416 399.922 489.347 400.146 489.208C400.37 489.069 400.482 488.904 400.482 488.712C400.482 488.499 400.386 488.328 400.194 488.2C400.013 488.061 399.693 487.939 399.234 487.832L398.13 487.592C397.885 487.539 397.629 487.453 397.362 487.336C397.106 487.219 396.872 487.069 396.658 486.888C396.445 486.707 396.269 486.488 396.13 486.232C395.992 485.976 395.922 485.677 395.922 485.336C395.922 484.952 396.002 484.611 396.162 484.312C396.333 484.013 396.562 483.763 396.85 483.56C397.138 483.347 397.474 483.187 397.858 483.08C398.253 482.963 398.674 482.904 399.122 482.904C399.869 482.904 400.536 483.053 401.122 483.352C401.709 483.64 402.141 484.104 402.418 484.744L400.61 485.48C400.461 485.171 400.242 484.947 399.954 484.808C399.666 484.669 399.378 484.6 399.09 484.6C398.792 484.6 398.53 484.664 398.306 484.792C398.082 484.909 397.97 485.064 397.97 485.256C397.97 485.437 398.061 485.581 398.242 485.688C398.434 485.795 398.69 485.891 399.01 485.976L400.21 486.264C401.01 486.456 401.602 486.765 401.986 487.192C402.381 487.608 402.578 488.104 402.578 488.68C402.578 489.021 402.498 489.347 402.338 489.656C402.178 489.965 401.949 490.243 401.65 490.488C401.362 490.723 401.01 490.909 400.594 491.048C400.189 491.187 399.736 491.256 399.234 491.256Z" fill="#08BD80"/>
<circle cx="180" cy="364" r="100" fill="#2D81F7" fill-opacity="0.1"/>
<path d="M1.152 348.544H3.312V357.952H8.16V360H1.152V348.544ZM10.6109 351.024C10.4295 351.024 10.2535 350.992 10.0829 350.928C9.92288 350.853 9.77888 350.757 9.65088 350.64C9.53354 350.512 9.43754 350.368 9.36288 350.208C9.29888 350.048 9.26688 349.872 9.26688 349.68C9.26688 349.488 9.29888 349.312 9.36288 349.152C9.43754 348.992 9.53354 348.853 9.65088 348.736C9.77888 348.608 9.92288 348.512 10.0829 348.448C10.2535 348.373 10.4295 348.336 10.6109 348.336C10.9842 348.336 11.3042 348.469 11.5709 348.736C11.8375 348.992 11.9709 349.307 11.9709 349.68C11.9709 350.053 11.8375 350.373 11.5709 350.64C11.3042 350.896 10.9842 351.024 10.6109 351.024ZM9.57088 360V352.16H11.6669V360H9.57088ZM12.7515 352.16H15.1355L17.0875 357.152H17.1995L19.1675 352.16H21.5355L18.1595 360H16.0955L12.7515 352.16ZM29.6794 358.112C29.3167 358.752 28.826 359.269 28.2074 359.664C27.5994 360.059 26.8527 360.256 25.9674 360.256C25.37 360.256 24.8154 360.155 24.3034 359.952C23.802 359.739 23.3647 359.445 22.9914 359.072C22.618 358.699 22.3247 358.261 22.1114 357.76C21.9087 357.248 21.8074 356.688 21.8074 356.08C21.8074 355.515 21.9087 354.981 22.1114 354.48C22.314 353.968 22.5967 353.525 22.9594 353.152C23.322 352.768 23.7487 352.464 24.2394 352.24C24.7407 352.016 25.29 351.904 25.8874 351.904C26.5167 351.904 27.0767 352.011 27.5674 352.224C28.058 352.427 28.4687 352.715 28.7994 353.088C29.13 353.451 29.3807 353.883 29.5514 354.384C29.722 354.885 29.8074 355.429 29.8074 356.016C29.8074 356.091 29.8074 356.155 29.8074 356.208C29.7967 356.272 29.7914 356.331 29.7914 356.384C29.7807 356.437 29.7754 356.496 29.7754 356.56H23.8714C23.914 356.88 23.9994 357.157 24.1274 357.392C24.266 357.616 24.4314 357.808 24.6234 357.968C24.826 358.117 25.0447 358.229 25.2794 358.304C25.514 358.368 25.754 358.4 25.9994 358.4C26.4794 358.4 26.874 358.293 27.1834 358.08C27.5034 357.856 27.754 357.579 27.9354 357.248L29.6794 358.112ZM27.7754 355.072C27.7647 354.933 27.7167 354.779 27.6314 354.608C27.5567 354.437 27.4394 354.277 27.2794 354.128C27.13 353.979 26.938 353.856 26.7034 353.76C26.4794 353.664 26.2074 353.616 25.8874 353.616C25.4394 353.616 25.0447 353.744 24.7034 354C24.362 354.256 24.122 354.613 23.9834 355.072H27.7754ZM11.168 377.16C10.6027 377.843 9.936 378.365 9.168 378.728C8.4 379.08 7.54133 379.256 6.592 379.256C5.73867 379.256 4.944 379.101 4.208 378.792C3.48267 378.483 2.85333 378.061 2.32 377.528C1.78667 376.995 1.36533 376.365 1.056 375.64C0.746667 374.904 0.592 374.115 0.592 373.272C0.592 372.429 0.746667 371.645 1.056 370.92C1.36533 370.184 1.78667 369.549 2.32 369.016C2.85333 368.483 3.48267 368.061 4.208 367.752C4.944 367.443 5.73867 367.288 6.592 367.288C7.50933 367.288 8.31467 367.448 9.008 367.768C9.712 368.088 10.336 368.552 10.88 369.16L9.36 370.632C9.01867 370.237 8.624 369.923 8.176 369.688C7.73867 369.453 7.216 369.336 6.608 369.336C6.07467 369.336 5.57333 369.432 5.104 369.624C4.63467 369.805 4.224 370.067 3.872 370.408C3.53067 370.749 3.25867 371.165 3.056 371.656C2.85333 372.136 2.752 372.675 2.752 373.272C2.752 373.869 2.85333 374.413 3.056 374.904C3.25867 375.384 3.53067 375.795 3.872 376.136C4.224 376.477 4.63467 376.744 5.104 376.936C5.57333 377.117 6.07467 377.208 6.608 377.208C7.248 377.208 7.81333 377.08 8.304 376.824C8.80533 376.557 9.248 376.184 9.632 375.704L11.168 377.16ZM12.4898 379V367.544H14.5858V379H12.4898ZM21.1343 378.168H21.0063C20.7609 378.467 20.4623 378.723 20.1102 378.936C19.7689 379.149 19.3263 379.256 18.7823 379.256C18.3769 379.256 17.9929 379.187 17.6303 379.048C17.2783 378.92 16.9689 378.739 16.7023 378.504C16.4356 378.269 16.2276 377.987 16.0783 377.656C15.9289 377.325 15.8543 376.963 15.8543 376.568C15.8543 376.163 15.9343 375.8 16.0943 375.48C16.2543 375.149 16.4783 374.867 16.7663 374.632C17.0543 374.397 17.3903 374.221 17.7743 374.104C18.1689 373.976 18.5956 373.912 19.0543 373.912C19.5663 373.912 19.9876 373.955 20.3183 374.04C20.6489 374.115 20.9209 374.195 21.1343 374.28V374.04C21.1343 373.624 20.9689 373.283 20.6383 373.016C20.3076 372.739 19.8969 372.6 19.4062 372.6C18.6809 372.6 18.0676 372.904 17.5663 373.512L16.0463 372.472C16.8783 371.427 18.0143 370.904 19.4543 370.904C20.6703 370.904 21.5983 371.192 22.2383 371.768C22.8783 372.333 23.1983 373.176 23.1983 374.296V379H21.1343V378.168ZM21.1343 375.816C20.8889 375.699 20.6329 375.608 20.3663 375.544C20.1103 375.469 19.8276 375.432 19.5182 375.432C19.0169 375.432 18.6276 375.544 18.3503 375.768C18.0836 375.981 17.9503 376.248 17.9503 376.568C17.9503 376.888 18.0783 377.144 18.3343 377.336C18.6009 377.528 18.9049 377.624 19.2463 377.624C19.5236 377.624 19.7796 377.576 20.0143 377.48C20.2489 377.373 20.4463 377.24 20.6063 377.08C20.7769 376.909 20.9049 376.717 20.9903 376.504C21.0863 376.28 21.1343 376.051 21.1343 375.816ZM27.8906 379.256C27.3786 379.256 26.92 379.192 26.5146 379.064C26.12 378.936 25.7733 378.771 25.4746 378.568C25.1866 378.355 24.9413 378.115 24.7386 377.848C24.536 377.571 24.3813 377.293 24.2746 377.016L26.1466 376.216C26.328 376.621 26.568 376.925 26.8666 377.128C27.176 377.32 27.5173 377.416 27.8906 377.416C28.2746 377.416 28.5786 377.347 28.8026 377.208C29.0266 377.069 29.1386 376.904 29.1386 376.712C29.1386 376.499 29.0426 376.328 28.8506 376.2C28.6693 376.061 28.3493 375.939 27.8906 375.832L26.7866 375.592C26.5413 375.539 26.2853 375.453 26.0186 375.336C25.7626 375.219 25.528 375.069 25.3146 374.888C25.1013 374.707 24.9253 374.488 24.7866 374.232C24.648 373.976 24.5786 373.677 24.5786 373.336C24.5786 372.952 24.6586 372.611 24.8186 372.312C24.9893 372.013 25.2186 371.763 25.5066 371.56C25.7946 371.347 26.1306 371.187 26.5146 371.08C26.9093 370.963 27.3306 370.904 27.7786 370.904C28.5253 370.904 29.192 371.053 29.7786 371.352C30.3653 371.64 30.7973 372.104 31.0746 372.744L29.2666 373.48C29.1173 373.171 28.8986 372.947 28.6106 372.808C28.3226 372.669 28.0346 372.6 27.7466 372.6C27.448 372.6 27.1866 372.664 26.9626 372.792C26.7386 372.909 26.6266 373.064 26.6266 373.256C26.6266 373.437 26.7173 373.581 26.8986 373.688C27.0906 373.795 27.3466 373.891 27.6666 373.976L28.8666 374.264C29.6666 374.456 30.2586 374.765 30.6426 375.192C31.0373 375.608 31.2346 376.104 31.2346 376.68C31.2346 377.021 31.1546 377.347 30.9946 377.656C30.8346 377.965 30.6053 378.243 30.3066 378.488C30.0186 378.723 29.6666 378.909 29.2506 379.048C28.8453 379.187 28.392 379.256 27.8906 379.256ZM35.625 379.256C35.113 379.256 34.6543 379.192 34.249 379.064C33.8543 378.936 33.5077 378.771 33.209 378.568C32.921 378.355 32.6757 378.115 32.473 377.848C32.2703 377.571 32.1157 377.293 32.009 377.016L33.881 376.216C34.0623 376.621 34.3023 376.925 34.601 377.128C34.9103 377.32 35.2517 377.416 35.625 377.416C36.009 377.416 36.313 377.347 36.537 377.208C36.761 377.069 36.873 376.904 36.873 376.712C36.873 376.499 36.777 376.328 36.585 376.2C36.4037 376.061 36.0837 375.939 35.625 375.832L34.521 375.592C34.2757 375.539 34.0197 375.453 33.753 375.336C33.497 375.219 33.2623 375.069 33.049 374.888C32.8357 374.707 32.6597 374.488 32.521 374.232C32.3823 373.976 32.313 373.677 32.313 373.336C32.313 372.952 32.393 372.611 32.553 372.312C32.7237 372.013 32.953 371.763 33.241 371.56C33.529 371.347 33.865 371.187 34.249 371.08C34.6437 370.963 35.065 370.904 35.513 370.904C36.2597 370.904 36.9263 371.053 37.513 371.352C38.0997 371.64 38.5317 372.104 38.809 372.744L37.001 373.48C36.8517 373.171 36.633 372.947 36.345 372.808C36.057 372.669 35.769 372.6 35.481 372.6C35.1823 372.6 34.921 372.664 34.697 372.792C34.473 372.909 34.361 373.064 34.361 373.256C34.361 373.437 34.4517 373.581 34.633 373.688C34.825 373.795 35.081 373.891 35.401 373.976L36.601 374.264C37.401 374.456 37.993 374.765 38.377 375.192C38.7717 375.608 38.969 376.104 38.969 376.68C38.969 377.021 38.889 377.347 38.729 377.656C38.569 377.965 38.3397 378.243 38.041 378.488C37.753 378.723 37.401 378.909 36.985 379.048C36.5797 379.187 36.1263 379.256 35.625 379.256ZM47.7575 377.112C47.3948 377.752 46.9042 378.269 46.2855 378.664C45.6775 379.059 44.9308 379.256 44.0455 379.256C43.4482 379.256 42.8935 379.155 42.3815 378.952C41.8802 378.739 41.4428 378.445 41.0695 378.072C40.6962 377.699 40.4028 377.261 40.1895 376.76C39.9868 376.248 39.8855 375.688 39.8855 375.08C39.8855 374.515 39.9868 373.981 40.1895 373.48C40.3922 372.968 40.6748 372.525 41.0375 372.152C41.4002 371.768 41.8268 371.464 42.3175 371.24C42.8188 371.016 43.3682 370.904 43.9655 370.904C44.5948 370.904 45.1548 371.011 45.6455 371.224C46.1362 371.427 46.5468 371.715 46.8775 372.088C47.2082 372.451 47.4588 372.883 47.6295 373.384C47.8002 373.885 47.8855 374.429 47.8855 375.016C47.8855 375.091 47.8855 375.155 47.8855 375.208C47.8748 375.272 47.8695 375.331 47.8695 375.384C47.8588 375.437 47.8535 375.496 47.8535 375.56H41.9495C41.9922 375.88 42.0775 376.157 42.2055 376.392C42.3442 376.616 42.5095 376.808 42.7015 376.968C42.9042 377.117 43.1228 377.229 43.3575 377.304C43.5922 377.368 43.8322 377.4 44.0775 377.4C44.5575 377.4 44.9522 377.293 45.2615 377.08C45.5815 376.856 45.8322 376.579 46.0135 376.248L47.7575 377.112ZM45.8535 374.072C45.8428 373.933 45.7948 373.779 45.7095 373.608C45.6348 373.437 45.5175 373.277 45.3575 373.128C45.2082 372.979 45.0162 372.856 44.7815 372.76C44.5575 372.664 44.2855 372.616 43.9655 372.616C43.5175 372.616 43.1228 372.744 42.7815 373C42.4402 373.256 42.2002 373.613 42.0615 374.072H45.8535ZM52.4062 379.256C51.8943 379.256 51.4356 379.192 51.0303 379.064C50.6356 378.936 50.2889 378.771 49.9903 378.568C49.7023 378.355 49.4569 378.115 49.2543 377.848C49.0516 377.571 48.8969 377.293 48.7903 377.016L50.6623 376.216C50.8436 376.621 51.0836 376.925 51.3823 377.128C51.6916 377.32 52.0329 377.416 52.4062 377.416C52.7903 377.416 53.0943 377.347 53.3183 377.208C53.5423 377.069 53.6543 376.904 53.6543 376.712C53.6543 376.499 53.5583 376.328 53.3663 376.2C53.1849 376.061 52.8649 375.939 52.4062 375.832L51.3023 375.592C51.0569 375.539 50.8009 375.453 50.5343 375.336C50.2783 375.219 50.0436 375.069 49.8303 374.888C49.6169 374.707 49.4409 374.488 49.3023 374.232C49.1636 373.976 49.0943 373.677 49.0943 373.336C49.0943 372.952 49.1743 372.611 49.3343 372.312C49.5049 372.013 49.7343 371.763 50.0223 371.56C50.3103 371.347 50.6463 371.187 51.0303 371.08C51.4249 370.963 51.8463 370.904 52.2943 370.904C53.0409 370.904 53.7076 371.053 54.2943 371.352C54.8809 371.64 55.3129 372.104 55.5903 372.744L53.7823 373.48C53.6329 373.171 53.4143 372.947 53.1263 372.808C52.8383 372.669 52.5503 372.6 52.2623 372.6C51.9636 372.6 51.7023 372.664 51.4783 372.792C51.2543 372.909 51.1423 373.064 51.1423 373.256C51.1423 373.437 51.2329 373.581 51.4143 373.688C51.6063 373.795 51.8623 373.891 52.1823 373.976L53.3823 374.264C54.1823 374.456 54.7743 374.765 55.1583 375.192C55.5529 375.608 55.7503 376.104 55.7503 376.68C55.7503 377.021 55.6703 377.347 55.5103 377.656C55.3503 377.965 55.1209 378.243 54.8223 378.488C54.5343 378.723 54.1823 378.909 53.7663 379.048C53.3609 379.187 52.9076 379.256 52.4062 379.256Z" fill="#2D81F7"/>
<path d="M183 636C187.418 636 191 632.418 191 628C191 623.582 187.418 620 183 620C178.582 620 175 623.582 175 628C175 632.418 178.582 636 183 636Z" fill="#FE5702"/>
<path d="M212.88 627.32C210.528 621.235 206.444 615.973 201.134 612.184C195.823 608.395 189.519 606.245 183 606C176.481 606.245 170.177 608.395 164.866 612.184C159.556 615.973 155.472 621.235 153.12 627.32C152.961 627.759 152.961 628.241 153.12 628.68C155.472 634.765 159.556 640.027 164.866 643.816C170.177 647.605 176.481 649.755 183 650C189.519 649.755 195.823 647.605 201.134 643.816C206.444 640.027 210.528 634.765 212.88 628.68C213.039 628.241 213.039 627.759 212.88 627.32V627.32ZM183 641C180.429 641 177.915 640.238 175.778 638.809C173.64 637.381 171.974 635.35 170.99 632.975C170.006 630.599 169.748 627.986 170.25 625.464C170.751 622.942 171.99 620.626 173.808 618.808C175.626 616.99 177.942 615.751 180.464 615.25C182.986 614.748 185.599 615.006 187.975 615.99C190.35 616.974 192.381 618.64 193.809 620.778C195.238 622.915 196 625.429 196 628C195.995 631.446 194.623 634.75 192.187 637.187C189.75 639.623 186.446 640.995 183 641V641Z" fill="#FE5702"/>
<circle cx="183" cy="628" r="100" fill="#FE5702" fill-opacity="0.1"/>
<path d="M6.344 624V615.52L4.408 616.336L3.64 614.56L6.856 613.056H8.44V624H6.344ZM15.0773 624.256C14.3733 624.256 13.7386 624.112 13.1733 623.824C12.6079 623.525 12.1226 623.12 11.7173 622.608C11.3226 622.096 11.0186 621.493 10.8053 620.8C10.5919 620.096 10.4853 619.339 10.4853 618.528C10.4853 617.717 10.5919 616.965 10.8053 616.272C11.0186 615.568 11.3226 614.96 11.7173 614.448C12.1226 613.936 12.6079 613.536 13.1733 613.248C13.7386 612.949 14.3733 612.8 15.0773 612.8C15.7813 612.8 16.4159 612.949 16.9813 613.248C17.5466 613.536 18.0266 613.936 18.4213 614.448C18.8266 614.96 19.1359 615.568 19.3493 616.272C19.5626 616.965 19.6693 617.717 19.6693 618.528C19.6693 619.339 19.5626 620.096 19.3493 620.8C19.1359 621.493 18.8266 622.096 18.4213 622.608C18.0266 623.12 17.5466 623.525 16.9813 623.824C16.4159 624.112 15.7813 624.256 15.0773 624.256ZM15.0773 622.272C15.4613 622.272 15.8079 622.181 16.1173 622C16.4266 621.808 16.6879 621.547 16.9013 621.216C17.1253 620.875 17.2906 620.475 17.3973 620.016C17.5146 619.557 17.5733 619.061 17.5733 618.528C17.5733 617.984 17.5146 617.488 17.3973 617.04C17.2906 616.581 17.1253 616.187 16.9013 615.856C16.6879 615.515 16.4266 615.253 16.1173 615.072C15.8079 614.88 15.4613 614.784 15.0773 614.784C14.6826 614.784 14.3306 614.88 14.0213 615.072C13.7119 615.253 13.4506 615.515 13.2373 615.856C13.0239 616.187 12.8586 616.581 12.7413 617.04C12.6346 617.488 12.5813 617.984 12.5813 618.528C12.5813 619.061 12.6346 619.557 12.7413 620.016C12.8586 620.475 13.0239 620.875 13.2373 621.216C13.4506 621.547 13.7119 621.808 14.0213 622C14.3306 622.181 14.6826 622.272 15.0773 622.272ZM25.671 624.256C24.967 624.256 24.3323 624.112 23.767 623.824C23.2017 623.525 22.7163 623.12 22.311 622.608C21.9163 622.096 21.6123 621.493 21.399 620.8C21.1857 620.096 21.079 619.339 21.079 618.528C21.079 617.717 21.1857 616.965 21.399 616.272C21.6123 615.568 21.9163 614.96 22.311 614.448C22.7163 613.936 23.2017 613.536 23.767 613.248C24.3323 612.949 24.967 612.8 25.671 612.8C26.375 612.8 27.0097 612.949 27.575 613.248C28.1403 613.536 28.6203 613.936 29.015 614.448C29.4203 614.96 29.7297 615.568 29.943 616.272C30.1563 616.965 30.263 617.717 30.263 618.528C30.263 619.339 30.1563 620.096 29.943 620.8C29.7297 621.493 29.4203 622.096 29.015 622.608C28.6203 623.12 28.1403 623.525 27.575 623.824C27.0097 624.112 26.375 624.256 25.671 624.256ZM25.671 622.272C26.055 622.272 26.4017 622.181 26.711 622C27.0203 621.808 27.2817 621.547 27.495 621.216C27.719 620.875 27.8843 620.475 27.991 620.016C28.1083 619.557 28.167 619.061 28.167 618.528C28.167 617.984 28.1083 617.488 27.991 617.04C27.8843 616.581 27.719 616.187 27.495 615.856C27.2817 615.515 27.0203 615.253 26.711 615.072C26.4017 614.88 26.055 614.784 25.671 614.784C25.2763 614.784 24.9243 614.88 24.615 615.072C24.3057 615.253 24.0443 615.515 23.831 615.856C23.6177 616.187 23.4523 616.581 23.335 617.04C23.2283 617.488 23.175 617.984 23.175 618.528C23.175 619.061 23.2283 619.557 23.335 620.016C23.4523 620.475 23.6177 620.875 23.831 621.216C24.0443 621.547 24.3057 621.808 24.615 622C24.9243 622.181 25.2763 622.272 25.671 622.272ZM35.6364 612.544H37.7964V617.456H37.9244L42.1164 612.544H44.7244V612.672L40.5804 617.408L45.1564 623.872V624H42.5164L39.1084 619.12L37.7964 620.64V624H35.6364V612.544ZM50.6595 618.736H53.3955V620.592H50.6595V623.312H48.8035V620.592H46.0835V618.736H48.8035V616.016H50.6595V618.736ZM3.192 631.544H5.528L7.896 638.44L8.312 639.912H8.44L8.888 638.44L11.352 631.544H13.688L9.512 643H7.24L3.192 631.544ZM15.6265 634.024C15.4452 634.024 15.2692 633.992 15.0985 633.928C14.9385 633.853 14.7945 633.757 14.6665 633.64C14.5492 633.512 14.4532 633.368 14.3785 633.208C14.3145 633.048 14.2825 632.872 14.2825 632.68C14.2825 632.488 14.3145 632.312 14.3785 632.152C14.4532 631.992 14.5492 631.853 14.6665 631.736C14.7945 631.608 14.9385 631.512 15.0985 631.448C15.2692 631.373 15.4452 631.336 15.6265 631.336C15.9998 631.336 16.3198 631.469 16.5865 631.736C16.8532 631.992 16.9865 632.307 16.9865 632.68C16.9865 633.053 16.8532 633.373 16.5865 633.64C16.3198 633.896 15.9998 634.024 15.6265 634.024ZM14.5865 643V635.16H16.6825V643H14.5865ZM25.945 641.112C25.5823 641.752 25.0917 642.269 24.473 642.664C23.865 643.059 23.1183 643.256 22.233 643.256C21.6357 643.256 21.081 643.155 20.569 642.952C20.0677 642.739 19.6303 642.445 19.257 642.072C18.8837 641.699 18.5903 641.261 18.377 640.76C18.1743 640.248 18.073 639.688 18.073 639.08C18.073 638.515 18.1743 637.981 18.377 637.48C18.5797 636.968 18.8623 636.525 19.225 636.152C19.5877 635.768 20.0143 635.464 20.505 635.24C21.0063 635.016 21.5557 634.904 22.153 634.904C22.7823 634.904 23.3423 635.011 23.833 635.224C24.3237 635.427 24.7343 635.715 25.065 636.088C25.3957 636.451 25.6463 636.883 25.817 637.384C25.9877 637.885 26.073 638.429 26.073 639.016C26.073 639.091 26.073 639.155 26.073 639.208C26.0623 639.272 26.057 639.331 26.057 639.384C26.0463 639.437 26.041 639.496 26.041 639.56H20.137C20.1797 639.88 20.265 640.157 20.393 640.392C20.5317 640.616 20.697 640.808 20.889 640.968C21.0917 641.117 21.3103 641.229 21.545 641.304C21.7797 641.368 22.0197 641.4 22.265 641.4C22.745 641.4 23.1397 641.293 23.449 641.08C23.769 640.856 24.0197 640.579 24.201 640.248L25.945 641.112ZM24.041 638.072C24.0303 637.933 23.9823 637.779 23.897 637.608C23.8223 637.437 23.705 637.277 23.545 637.128C23.3957 636.979 23.2037 636.856 22.969 636.76C22.745 636.664 22.473 636.616 22.153 636.616C21.705 636.616 21.3103 636.744 20.969 637C20.6277 637.256 20.3877 637.613 20.249 638.072H24.041ZM26.4234 635.16H28.7754L30.0714 640.072H30.1834L31.7354 635.16H33.8954L35.4634 640.072H35.5754L36.8554 635.16H39.1754L36.6634 643H34.4074L32.8394 638.056H32.7274L31.1594 643H28.9354L26.4234 635.16ZM43.2344 643.256C42.7224 643.256 42.2637 643.192 41.8584 643.064C41.4637 642.936 41.117 642.771 40.8184 642.568C40.5304 642.355 40.285 642.115 40.0824 641.848C39.8797 641.571 39.725 641.293 39.6184 641.016L41.4904 640.216C41.6717 640.621 41.9117 640.925 42.2104 641.128C42.5197 641.32 42.861 641.416 43.2344 641.416C43.6184 641.416 43.9224 641.347 44.1464 641.208C44.3704 641.069 44.4824 640.904 44.4824 640.712C44.4824 640.499 44.3864 640.328 44.1944 640.2C44.013 640.061 43.693 639.939 43.2344 639.832L42.1304 639.592C41.885 639.539 41.629 639.453 41.3624 639.336C41.1064 639.219 40.8717 639.069 40.6584 638.888C40.445 638.707 40.269 638.488 40.1304 638.232C39.9917 637.976 39.9224 637.677 39.9224 637.336C39.9224 636.952 40.0024 636.611 40.1624 636.312C40.333 636.013 40.5624 635.763 40.8504 635.56C41.1384 635.347 41.4744 635.187 41.8584 635.08C42.253 634.963 42.6744 634.904 43.1224 634.904C43.869 634.904 44.5357 635.053 45.1224 635.352C45.709 635.64 46.141 636.104 46.4184 636.744L44.6104 637.48C44.461 637.171 44.2424 636.947 43.9544 636.808C43.6664 636.669 43.3784 636.6 43.0904 636.6C42.7917 636.6 42.5304 636.664 42.3064 636.792C42.0824 636.909 41.9704 637.064 41.9704 637.256C41.9704 637.437 42.061 637.581 42.2424 637.688C42.4344 637.795 42.6904 637.891 43.0104 637.976L44.2104 638.264C45.0104 638.456 45.6024 638.765 45.9864 639.192C46.381 639.608 46.5784 640.104 46.5784 640.68C46.5784 641.021 46.4984 641.347 46.3384 641.656C46.1784 641.965 45.949 642.243 45.6504 642.488C45.3624 642.723 45.0104 642.909 44.5944 643.048C44.189 643.187 43.7357 643.256 43.2344 643.256Z" fill="#FE5702"/>
<path fill-rule="evenodd" clip-rule="evenodd" d="M156 340V377.333H185.849V374.667H158.667V342.667H194.667V345.493H197.333V340H156ZM197.333 353.333C197.333 354.041 197.052 354.719 196.552 355.219C196.052 355.719 195.374 356 194.667 356C193.959 356 193.281 355.719 192.781 355.219C192.281 354.719 192 354.041 192 353.333C192 352.626 192.281 351.948 192.781 351.448C193.281 350.948 193.959 350.667 194.667 350.667C195.374 350.667 196.052 350.948 196.552 351.448C197.052 351.948 197.333 352.626 197.333 353.333ZM200 353.333C200 354.748 199.438 356.104 198.438 357.105C197.438 358.105 196.081 358.667 194.667 358.667C193.252 358.667 191.896 358.105 190.895 357.105C189.895 356.104 189.333 354.748 189.333 353.333C189.333 351.919 189.895 350.562 190.895 349.562C191.896 348.562 193.252 348 194.667 348C196.081 348 197.438 348.562 198.438 349.562C199.438 350.562 200 351.919 200 353.333Z" fill="#2D81F7"/>
<path fill-rule="evenodd" clip-rule="evenodd" d="M188.124 361.107C188.868 360.397 189.856 360.001 190.884 360H196.327C198.279 360 200.096 360.664 201.496 361.987C202.843 363.259 203.544 364.889 203.831 366.435C204.281 368.864 203.815 371.519 202.667 373.872V384.667C202.667 385.503 202.352 386.309 201.786 386.924C201.219 387.54 200.442 387.92 199.608 387.989C198.775 388.058 197.946 387.811 197.286 387.297C196.625 386.783 196.183 386.04 196.045 385.215L195.333 380.943L194.621 385.215C194.484 386.04 194.041 386.783 193.381 387.297C192.721 387.811 191.892 388.058 191.058 387.989C190.225 387.92 189.448 387.54 188.881 386.924C188.314 386.309 188 385.503 188 384.667V372.124C187.392 372.475 186.702 372.66 186 372.66H179.197C178.136 372.66 177.119 372.239 176.369 371.488C175.619 370.738 175.197 369.721 175.197 368.66C175.197 367.599 175.619 366.582 176.369 365.832C177.119 365.081 178.136 364.66 179.197 364.66H184.397L188.124 361.105V361.107ZM190.667 376.633V384.667C190.667 384.834 190.73 384.994 190.844 385.117C190.957 385.24 191.112 385.316 191.278 385.329C191.445 385.343 191.61 385.294 191.742 385.191C191.874 385.089 191.963 384.941 191.991 384.776L193.381 376.435C193.433 376.123 193.594 375.84 193.834 375.636C194.075 375.432 194.38 375.32 194.696 375.32H195.971C196.286 375.32 196.592 375.432 196.832 375.636C197.073 375.84 197.234 376.123 197.285 376.435L198.676 384.776C198.704 384.941 198.792 385.089 198.924 385.191C199.056 385.294 199.222 385.343 199.388 385.329C199.555 385.316 199.71 385.24 199.823 385.117C199.936 384.994 200 384.834 200 384.667V373.555C200 373.341 200.051 373.131 200.149 372.941C201.179 370.955 201.553 368.777 201.209 366.921C201 365.793 200.511 364.724 199.665 363.925C198.803 363.111 197.659 362.667 196.327 362.667H190.885C190.543 362.667 190.212 362.799 189.964 363.035L185.852 366.957C185.604 367.194 185.275 367.326 184.932 367.327H179.197C178.844 367.327 178.505 367.467 178.255 367.717C178.004 367.967 177.864 368.306 177.864 368.66C177.864 369.014 178.004 369.353 178.255 369.603C178.505 369.853 178.844 369.993 179.197 369.993H186C186.343 369.993 186.672 369.861 186.92 369.624L188.413 368.2C188.602 368.02 188.84 367.899 189.097 367.853C189.354 367.807 189.618 367.837 189.858 367.939C190.098 368.042 190.303 368.213 190.446 368.431C190.59 368.649 190.667 368.904 190.667 369.165V376.635V376.633Z" fill="#2D81F7"/>
<path d="M505.333 238.667C503.867 238.667 502.611 238.145 501.565 237.101C500.522 236.056 500 234.8 500 233.333V190.667C500 189.2 500.522 187.944 501.565 186.899C502.611 185.855 503.867 185.333 505.333 185.333H537.333C538.8 185.333 540.056 185.855 541.101 186.899C542.145 187.944 542.667 189.2 542.667 190.667V209.533C542.222 209.444 541.744 209.388 541.232 209.365C540.722 209.344 540.311 209.333 540 209.333C534.889 209.333 530.5 211.144 526.832 214.765C523.166 218.388 521.333 222.8 521.333 228C521.333 229.911 521.622 231.778 522.2 233.6C522.778 235.422 523.622 237.111 524.733 238.667H505.333ZM540 241.333C536.311 241.333 533.167 240.034 530.568 237.435C527.967 234.834 526.667 231.689 526.667 228C526.667 224.311 527.967 221.166 530.568 218.565C533.167 215.966 536.311 214.667 540 214.667C543.689 214.667 546.834 215.966 549.435 218.565C552.034 221.166 553.333 224.311 553.333 228C553.333 231.689 552.034 234.834 549.435 237.435C546.834 240.034 543.689 241.333 540 241.333ZM538.733 233.4L545.533 229.133C545.933 228.867 546.133 228.489 546.133 228C546.133 227.511 545.933 227.133 545.533 226.867L538.733 222.6C538.244 222.333 537.778 222.323 537.333 222.568C536.889 222.812 536.667 223.2 536.667 223.733V232.267C536.667 232.8 536.889 233.189 537.333 233.435C537.778 233.678 538.244 233.667 538.733 233.4ZM512.667 208.133L517.333 205.333L522 208.133C522.444 208.4 522.889 208.4 523.333 208.133C523.778 207.867 524 207.489 524 207V190.667H510.667V207C510.667 207.489 510.889 207.867 511.333 208.133C511.778 208.4 512.222 208.4 512.667 208.133Z" fill="#EB5757"/>
<g clip-path="url(#clip0_6_2467)">
<path d="M512.8 485.2C512.561 485.2 512.322 485.235 512.094 485.309C510.798 485.73 509.435 486 508 486C506.565 486 505.202 485.73 503.905 485.309C503.677 485.235 503.439 485.2 503.2 485.2C496.994 485.2 491.967 490.248 492 496.462C492.014 499.088 494.173 501.2 496.8 501.2H519.2C521.827 501.2 523.986 499.088 524 496.462C524.033 490.248 519.006 485.2 512.8 485.2ZM508 482C513.302 482 517.6 477.702 517.6 472.4C517.6 467.098 513.302 462.8 508 462.8C502.698 462.8 498.4 467.098 498.4 472.4C498.4 477.702 502.698 482 508 482ZM551.2 450H512.8C510.153 450 508 452.225 508 454.959V459.6C510.342 459.6 512.51 460.278 514.4 461.38V456.4H549.6V485.2H543.2V478.8H530.4V485.2H522.776C524.686 486.869 526.088 489.073 526.745 491.6H551.2C553.847 491.6 556 489.375 556 486.641V454.959C556 452.225 553.847 450 551.2 450Z" fill="#08BD80"/>
</g>
<defs>
<clipPath id="clip0_6_2467">
<rect width="64" height="51.2" fill="white" transform="translate(492 450)"/>
</clipPath>
</defs>
</svg>
