<svg width="48" height="48" viewBox="0 0 48 48" fill="none" xmlns="http://www.w3.org/2000/svg">
<path d="M0 24C0 10.7452 10.7452 0 24 0C37.2548 0 48 10.7452 48 24C48 37.2548 37.2548 48 24 48C10.7452 48 0 37.2548 0 24Z" fill="#343538"/>
<path d="M24 15.6667H21.25C19.6667 15.6667 18.4167 16.9167 18.4167 18.4167C18.4167 19.9167 19.6667 21.1667 21.1667 21.1667H24V15.6667Z" stroke="white" stroke-miterlimit="10"/>
<path d="M24 21.25H21.25C19.75 21.25 18.5 22.5 18.5 24C18.5 25.5 19.75 26.75 21.25 26.75H24V21.25Z" stroke="white" stroke-miterlimit="10"/>
<path d="M24 26.75H21.25C19.75 26.75 18.5 28 18.5 29.5C18.5 31 19.75 32.25 21.25 32.25C22.75 32.25 24 31 24 29.5V26.75Z" stroke="white" stroke-miterlimit="10"/>
<path d="M24 15.6667H26.75C28.25 15.6667 29.5 16.9167 29.5 18.4167C29.5 19.9167 28.25 21.1667 26.75 21.1667H24V15.6667Z" stroke="white" stroke-miterlimit="10"/>
<path d="M26.75 21.25C28.25 21.25 29.5 22.5 29.5 24C29.5 25.5 28.25 26.75 26.75 26.75C25.25 26.75 24 25.5 24 24C24 22.5 25.25 21.25 26.75 21.25Z" stroke="white" stroke-miterlimit="10"/>
</svg>
