<svg width="151" height="48" viewBox="0 0 151 48" fill="none" xmlns="http://www.w3.org/2000/svg">
<path d="M24.959 15.301L34.288 21.206L32.548 22.472L23.925 17.014L15.386 22.47L13.658 21.2L22.885 15.306C23.1941 15.1072 23.5537 15.001 23.9212 15.0001C24.2888 14.9992 24.6489 15.1037 24.959 15.301Z" fill="white"/>
<path fill-rule="evenodd" clip-rule="evenodd" d="M6.83498 20.913C5.67698 20.063 5.73298 18.264 6.94098 17.493L22.885 7.305C23.1941 7.10615 23.5537 7.00001 23.9213 6.99912C24.2888 6.99823 24.6489 7.10265 24.959 7.3L41.052 17.487C42.269 18.257 42.325 20.067 41.157 20.917L25.066 32.627C24.38 33.127 23.465 33.124 22.78 32.622L6.83498 20.912V20.913ZM8.01798 19.177L23.925 9.014L39.982 19.178L39.987 19.181L39.988 19.184C39.9957 19.1999 39.9998 19.2173 40 19.235C40.0008 19.2539 39.9974 19.2726 39.99 19.29C39.9899 19.2919 39.9892 19.2936 39.988 19.295L39.981 19.301L23.926 30.982L8.01898 19.301C8.01641 19.2993 8.01406 19.2973 8.01198 19.295L8.00898 19.289C8.00206 19.2719 7.99899 19.2534 7.99998 19.235C8.00018 19.2173 8.00428 19.1999 8.01198 19.184L8.01298 19.181L8.01798 19.177Z" fill="white"/>
<path d="M8.23698 24.664L9.96498 25.934L8.01798 27.177C8.0162 27.1782 8.01453 27.1795 8.01298 27.181L8.01198 27.184C8.00442 27.1996 8.00032 27.2167 7.99998 27.234C7.99885 27.2543 8.00262 27.2745 8.01098 27.293C8.01128 27.2937 8.01161 27.2943 8.01198 27.295L8.01898 27.301L23.926 38.982L39.981 27.301L39.988 27.295L39.989 27.293L39.991 27.29C39.998 27.2726 40.0011 27.2538 40 27.235C39.9998 27.2173 39.9957 27.1999 39.988 27.184L39.987 27.181L39.982 27.178L38.002 25.924L39.742 24.659L41.052 25.488C42.269 26.258 42.325 28.068 41.157 28.918L25.066 40.627C24.38 41.127 23.465 41.124 22.78 40.622L6.83498 28.912C5.67698 28.062 5.73298 26.264 6.94098 25.492L8.23698 24.664Z" fill="white"/>
<path d="M64.074 29.224C63.6447 29.224 63.234 29.1633 62.842 29.042C62.45 28.9207 62.0907 28.7387 61.764 28.496C61.4373 28.2533 61.1527 27.9593 60.91 27.614C60.6673 27.2593 60.476 26.8487 60.336 26.382L62.114 25.682C62.2447 26.186 62.4733 26.606 62.8 26.942C63.1267 27.2687 63.556 27.432 64.088 27.432C64.284 27.432 64.4707 27.4087 64.648 27.362C64.8347 27.306 64.998 27.2313 65.138 27.138C65.2873 27.0353 65.404 26.9093 65.488 26.76C65.572 26.6107 65.614 26.438 65.614 26.242C65.614 26.0553 65.5813 25.8873 65.516 25.738C65.4507 25.5887 65.3387 25.4487 65.18 25.318C65.0307 25.1873 64.83 25.0613 64.578 24.94C64.3353 24.8187 64.032 24.6927 63.668 24.562L63.052 24.338C62.7813 24.2447 62.506 24.1187 62.226 23.96C61.9553 23.8013 61.708 23.61 61.484 23.386C61.26 23.162 61.0733 22.9007 60.924 22.602C60.784 22.294 60.714 21.9487 60.714 21.566C60.714 21.174 60.7887 20.81 60.938 20.474C61.0967 20.1287 61.316 19.83 61.596 19.578C61.8853 19.3167 62.226 19.116 62.618 18.976C63.0193 18.8267 63.4627 18.752 63.948 18.752C64.452 18.752 64.886 18.822 65.25 18.962C65.6233 19.0927 65.936 19.2653 66.188 19.48C66.4493 19.6853 66.6593 19.914 66.818 20.166C66.9767 20.418 67.0933 20.656 67.168 20.88L65.502 21.58C65.4087 21.3 65.236 21.048 64.984 20.824C64.7413 20.6 64.4053 20.488 63.976 20.488C63.5653 20.488 63.2247 20.586 62.954 20.782C62.6833 20.9687 62.548 21.216 62.548 21.524C62.548 21.8227 62.6787 22.0793 62.94 22.294C63.2013 22.4993 63.6167 22.7 64.186 22.896L64.816 23.106C65.2173 23.246 65.5813 23.4093 65.908 23.596C66.244 23.7733 66.5287 23.988 66.762 24.24C67.0047 24.492 67.1867 24.7813 67.308 25.108C67.4387 25.4253 67.504 25.794 67.504 26.214C67.504 26.7367 67.3967 27.1893 67.182 27.572C66.9767 27.9453 66.7107 28.2533 66.384 28.496C66.0573 28.7387 65.6887 28.9207 65.278 29.042C64.8673 29.1633 64.466 29.224 64.074 29.224ZM77.8247 27.39C77.3301 27.9873 76.7467 28.4447 76.0747 28.762C75.4027 29.07 74.6514 29.224 73.8207 29.224C73.0741 29.224 72.3787 29.0887 71.7347 28.818C71.1001 28.5473 70.5494 28.1787 70.0827 27.712C69.6161 27.2453 69.2474 26.6947 68.9767 26.06C68.7061 25.416 68.5707 24.7253 68.5707 23.988C68.5707 23.2507 68.7061 22.5647 68.9767 21.93C69.2474 21.286 69.6161 20.7307 70.0827 20.264C70.5494 19.7973 71.1001 19.4287 71.7347 19.158C72.3787 18.8873 73.0741 18.752 73.8207 18.752C74.6234 18.752 75.3281 18.892 75.9347 19.172C76.5507 19.452 77.0967 19.858 77.5727 20.39L76.2427 21.678C75.9441 21.3327 75.5987 21.0573 75.2067 20.852C74.8241 20.6467 74.3667 20.544 73.8347 20.544C73.3681 20.544 72.9294 20.628 72.5187 20.796C72.1081 20.9547 71.7487 21.1833 71.4407 21.482C71.1421 21.7807 70.9041 22.1447 70.7267 22.574C70.5494 22.994 70.4607 23.4653 70.4607 23.988C70.4607 24.5107 70.5494 24.9867 70.7267 25.416C70.9041 25.836 71.1421 26.1953 71.4407 26.494C71.7487 26.7927 72.1081 27.026 72.5187 27.194C72.9294 27.3527 73.3681 27.432 73.8347 27.432C74.3947 27.432 74.8894 27.32 75.3187 27.096C75.7574 26.8627 76.1447 26.536 76.4807 26.116L77.8247 27.39ZM79.342 18.976H82.996C83.5 18.976 83.9573 19.0553 84.368 19.214C84.7787 19.3727 85.1287 19.592 85.418 19.872C85.7167 20.152 85.9453 20.488 86.104 20.88C86.2627 21.2627 86.342 21.6827 86.342 22.14C86.342 22.476 86.286 22.7933 86.174 23.092C86.062 23.3813 85.908 23.6473 85.712 23.89C85.516 24.1233 85.2873 24.3333 85.026 24.52C84.7647 24.6973 84.4893 24.8373 84.2 24.94L84.186 25.038L86.874 28.888V29H84.704L82.114 25.234H81.232V29H79.342V18.976ZM82.982 23.498C83.4113 23.498 83.7613 23.3673 84.032 23.106C84.312 22.8447 84.452 22.5133 84.452 22.112C84.452 21.9347 84.4193 21.762 84.354 21.594C84.298 21.426 84.2093 21.2767 84.088 21.146C83.9667 21.0153 83.8127 20.9127 83.626 20.838C83.4487 20.754 83.2433 20.712 83.01 20.712H81.232V23.498H82.982ZM91.6916 29.224C91.1036 29.224 90.567 29.1307 90.0816 28.944C89.6056 28.748 89.1996 28.468 88.8636 28.104C88.5276 27.74 88.2663 27.3013 88.0796 26.788C87.893 26.2653 87.7996 25.6727 87.7996 25.01V18.976H89.6896V25.122C89.6896 25.458 89.7316 25.766 89.8156 26.046C89.8996 26.326 90.0256 26.5687 90.1936 26.774C90.3616 26.9793 90.5716 27.1427 90.8236 27.264C91.0756 27.376 91.365 27.432 91.6916 27.432C92.0276 27.432 92.3216 27.376 92.5736 27.264C92.8256 27.1427 93.0356 26.9793 93.2036 26.774C93.3716 26.5687 93.4976 26.326 93.5816 26.046C93.6656 25.766 93.7076 25.458 93.7076 25.122V18.976H95.5976V25.01C95.5976 25.6353 95.5043 26.2093 95.3176 26.732C95.1403 27.2453 94.879 27.6887 94.5336 28.062C94.1976 28.426 93.787 28.7107 93.3016 28.916C92.8256 29.1213 92.289 29.224 91.6916 29.224ZM97.3889 18.976H99.2509L102.317 24.282H102.429L105.495 18.976H107.371V29H105.495V24.058L105.607 22.378H105.495L102.947 26.872H101.813L99.2509 22.378H99.1389L99.2509 24.058V29H97.3889V18.976ZM108.348 18.976H110.392L112.464 25.01L112.828 26.298H112.94L113.332 25.01L115.488 18.976H117.532L113.878 29H111.89L108.348 18.976ZM120.593 20.768V23.092H124.611V24.884H120.593V27.208H125.059V29H118.703V18.976H125.059V20.768H120.593ZM126.797 18.976H130.451C130.955 18.976 131.412 19.0553 131.823 19.214C132.234 19.3727 132.584 19.592 132.873 19.872C133.172 20.152 133.4 20.488 133.559 20.88C133.718 21.2627 133.797 21.6827 133.797 22.14C133.797 22.476 133.741 22.7933 133.629 23.092C133.517 23.3813 133.363 23.6473 133.167 23.89C132.971 24.1233 132.742 24.3333 132.481 24.52C132.22 24.6973 131.944 24.8373 131.655 24.94L131.641 25.038L134.329 28.888V29H132.159L129.569 25.234H128.687V29H126.797V18.976ZM130.437 23.498C130.866 23.498 131.216 23.3673 131.487 23.106C131.767 22.8447 131.907 22.5133 131.907 22.112C131.907 21.9347 131.874 21.762 131.809 21.594C131.753 21.426 131.664 21.2767 131.543 21.146C131.422 21.0153 131.268 20.9127 131.081 20.838C130.904 20.754 130.698 20.712 130.465 20.712H128.687V23.498H130.437ZM138.545 29.224C138.115 29.224 137.705 29.1633 137.313 29.042C136.921 28.9207 136.561 28.7387 136.235 28.496C135.908 28.2533 135.623 27.9593 135.381 27.614C135.138 27.2593 134.947 26.8487 134.807 26.382L136.585 25.682C136.715 26.186 136.944 26.606 137.271 26.942C137.597 27.2687 138.027 27.432 138.559 27.432C138.755 27.432 138.941 27.4087 139.119 27.362C139.305 27.306 139.469 27.2313 139.609 27.138C139.758 27.0353 139.875 26.9093 139.959 26.76C140.043 26.6107 140.085 26.438 140.085 26.242C140.085 26.0553 140.052 25.8873 139.987 25.738C139.921 25.5887 139.809 25.4487 139.651 25.318C139.501 25.1873 139.301 25.0613 139.049 24.94C138.806 24.8187 138.503 24.6927 138.139 24.562L137.523 24.338C137.252 24.2447 136.977 24.1187 136.697 23.96C136.426 23.8013 136.179 23.61 135.955 23.386C135.731 23.162 135.544 22.9007 135.395 22.602C135.255 22.294 135.185 21.9487 135.185 21.566C135.185 21.174 135.259 20.81 135.409 20.474C135.567 20.1287 135.787 19.83 136.067 19.578C136.356 19.3167 136.697 19.116 137.089 18.976C137.49 18.8267 137.933 18.752 138.419 18.752C138.923 18.752 139.357 18.822 139.721 18.962C140.094 19.0927 140.407 19.2653 140.659 19.48C140.92 19.6853 141.13 19.914 141.289 20.166C141.447 20.418 141.564 20.656 141.639 20.88L139.973 21.58C139.879 21.3 139.707 21.048 139.455 20.824C139.212 20.6 138.876 20.488 138.447 20.488C138.036 20.488 137.695 20.586 137.425 20.782C137.154 20.9687 137.019 21.216 137.019 21.524C137.019 21.8227 137.149 22.0793 137.411 22.294C137.672 22.4993 138.087 22.7 138.657 22.896L139.287 23.106C139.688 23.246 140.052 23.4093 140.379 23.596C140.715 23.7733 140.999 23.988 141.233 24.24C141.475 24.492 141.657 24.7813 141.779 25.108C141.909 25.4253 141.975 25.794 141.975 26.214C141.975 26.7367 141.867 27.1893 141.653 27.572C141.447 27.9453 141.181 28.2533 140.855 28.496C140.528 28.7387 140.159 28.9207 139.749 29.042C139.338 29.1633 138.937 29.224 138.545 29.224ZM145.421 20.768V23.092H149.439V24.884H145.421V27.208H149.887V29H143.531V18.976H149.887V20.768H145.421Z" fill="white"/>
</svg>
