<svg width="48" height="48" viewBox="0 0 48 48" fill="none" xmlns="http://www.w3.org/2000/svg">
<path d="M0 24C0 10.7452 10.7452 0 24 0C37.2548 0 48 10.7452 48 24C48 37.2548 37.2548 48 24 48C10.7452 48 0 37.2548 0 24Z" fill="#343538"/>
<path d="M28.1667 30.6666H19.8333C17.3333 30.6666 15.6667 28.9999 15.6667 26.4999V21.4999C15.6667 18.9999 17.3333 17.3333 19.8333 17.3333H28.1667C30.6667 17.3333 32.3333 18.9999 32.3333 21.4999V26.4999C32.3333 28.9999 30.6667 30.6666 28.1667 30.6666Z" stroke="white" stroke-miterlimit="10" stroke-linecap="round" stroke-linejoin="round"/>
<path d="M23.5 21.9168L25.5833 23.1668C26.3333 23.6668 26.3333 24.4168 25.5833 24.9168L23.5 26.1668C22.6667 26.6668 22 26.2501 22 25.3334V22.8334C22 21.7501 22.6667 21.4168 23.5 21.9168Z" stroke="white" stroke-miterlimit="10" stroke-linecap="round" stroke-linejoin="round"/>
</svg>
